<?xml version="1.0" encoding="utf-8"?>
<!-- Generator: Adobe Illustrator 27.5.0, SVG Export Plug-In . SVG Version: 6.00 Build 0)  -->
<svg version="1.1" xmlns="http://www.w3.org/2000/svg" xmlns:xlink="http://www.w3.org/1999/xlink" x="0px" y="0px"
	 viewBox="0 0 750 500" style="enable-background:new 0 0 750 500;" xml:space="preserve">
<g id="BACKGROUND">
	<g>
		<rect style="fill:#FFFFFF;" width="750" height="500"/>
		<g>
			<path style="fill:#EEF6FF;" d="M111.266,420.769c0,0,111.363-53.799,63.562-103.026
				C127.028,268.516,36.729,95.801,113.697,82.467c76.967-13.334,112.16,104.78,190.713,79.929s139.57-76.78,206.563-29.519
				c76.576,54.022-33.783,138.035,15.373,163.137c49.156,25.103,132.259,75.332,135.268,124.754H111.266z"/>
			<g>
				<ellipse style="fill:#EEF6FF;" cx="294.363" cy="81.47" rx="17.972" ry="15.99"/>
				<ellipse style="fill:#EEF6FF;" cx="464.368" cy="86.066" rx="11.911" ry="10.597"/>
				<ellipse style="fill:#EEF6FF;" cx="72.674" cy="377.72" rx="17.14" ry="15.25"/>
				<ellipse style="fill:#EEF6FF;" cx="500.919" cy="109.122" rx="7.342" ry="6.532"/>
				<path style="fill:#EEF6FF;" d="M142.152,330.89c0,3.608-3.287,6.532-7.342,6.532c-4.055,0-7.342-2.925-7.342-6.532
					s3.287-6.532,7.342-6.532C138.865,324.358,142.152,327.282,142.152,330.89z"/>
				<path style="fill:#EEF6FF;" d="M594.891,290.078c0,3.608-3.287,6.532-7.342,6.532c-4.055,0-7.342-2.925-7.342-6.532
					c0-3.608,3.287-6.532,7.342-6.532C591.604,283.546,594.891,286.471,594.891,290.078z"/>
				<ellipse style="fill:#EEF6FF;" cx="332.53" cy="121.422" rx="7.342" ry="6.532"/>
			</g>
		</g>
	</g>
</g>
<g id="OBJECTS">
	<g>
		<path style="fill:#FFFFFF;stroke:#C5D5E8;stroke-miterlimit:10;" d="M690.024,275.224H533.088c-4.495,0-8.138-3.644-8.138-8.138
			V130.747c0-4.495,3.644-8.139,8.138-8.139h156.936c4.495,0,8.138,3.644,8.138,8.139v136.339
			C698.162,271.581,694.519,275.224,690.024,275.224z"/>
		<path style="fill:#FFFFFF;stroke:#C5D5E8;stroke-miterlimit:10;" d="M682.582,266.135H525.646c-4.495,0-8.138-3.644-8.138-8.138
			V121.658c0-4.495,3.644-8.139,8.138-8.139h156.936c4.495,0,8.138,3.644,8.138,8.139v136.339
			C690.721,262.491,687.077,266.135,682.582,266.135z"/>
		<g>
			<rect x="616.958" y="133.349" style="fill:#D1E7FF;" width="60.171" height="22.886"/>
			<rect x="616.958" y="164.624" style="fill:#D1E7FF;" width="60.171" height="22.886"/>
			<rect x="616.958" y="195.899" style="fill:#D1E7FF;" width="60.171" height="22.886"/>
			<rect x="616.958" y="227.174" style="fill:#D1E7FF;" width="60.171" height="22.887"/>
		</g>
		<g>
			<g>
				<rect x="536.574" y="192.596" style="fill:#5DCBC2;" width="13.446" height="57.464"/>
				<rect x="590.668" y="200.501" style="fill:#D1E7FF;" width="13.446" height="49.56"/>
				<rect x="554.659" y="211.684" style="fill:#D1E7FF;" width="13.446" height="38.377"/>
				<rect x="573.198" y="218.715" style="fill:#D1E7FF;" width="13.446" height="31.346"/>
			</g>
			<line style="fill:none;stroke:#5DCBC2;stroke-miterlimit:10;" x1="530.739" y1="250.061" x2="608.996" y2="250.061"/>
		</g>
		<g>
			<path style="fill:#5DCBC2;" d="M596.622,156.219c0,2.985-0.498,5.852-1.417,8.534l-25.019-8.534l15.835-21.157
				C592.458,139.875,596.622,147.554,596.622,156.219z"/>
			<path style="fill:#D1E7FF;" d="M595.136,164.827v0.011c-3.548,10.416-13.402,17.901-25.019,17.901
				c-14.602,0-26.446-11.844-26.446-26.447c0-14.602,11.844-26.436,26.446-26.436c5.938,0,11.422,1.958,15.835,5.278l-15.835,21.157
				L595.136,164.827z"/>
			<path style="fill:#FFFFFF;" d="M595.455,164.108l-24.656-8.011l15.235-20.969c-0.202-0.151-0.41-0.294-0.616-0.44l-15.232,20.964
				l-15.231-20.964c-0.206,0.146-0.414,0.289-0.616,0.44l15.235,20.969l-24.655,8.011c0.075,0.242,0.159,0.479,0.24,0.718
				l24.649-8.009v25.912c0.127,0.002,0.252,0.01,0.379,0.01c0.127,0,0.252-0.008,0.378-0.01v-25.912l24.65,8.009
				C595.296,164.588,595.38,164.35,595.455,164.108z"/>
		</g>
	</g>
	<g>
		<g>
			<path style="fill:#5DCBC2;" d="M596.807,354.267l56.062,6.525c2.86,0.333,4.909,2.921,4.576,5.781l-3.482,29.92
				c-0.333,2.86-2.921,4.909-5.781,4.576l-2.002-0.233l-2.801,10.553l-6.02-11.58l-45.239-5.265
				c-2.86-0.333-4.909-2.921-4.576-5.781l3.482-29.92C591.358,355.983,593.947,353.935,596.807,354.267z"/>
			<g>
				<path style="fill:#FFFFFF;" d="M632.508,378.834c-0.183,1.571,0.943,2.993,2.514,3.176c1.571,0.183,2.993-0.943,3.176-2.514
					c0.183-1.571-0.943-2.993-2.514-3.176S632.691,377.262,632.508,378.834z"/>
				<path style="fill:#FFFFFF;" d="M619.649,377.337c-0.183,1.571,0.943,2.993,2.514,3.176c1.571,0.183,2.993-0.943,3.176-2.514
					c0.183-1.571-0.943-2.993-2.514-3.176C621.254,374.64,619.832,375.766,619.649,377.337z"/>
				<path style="fill:#FFFFFF;" d="M606.79,375.841c-0.183,1.571,0.943,2.993,2.514,3.176c1.571,0.183,2.993-0.943,3.176-2.514
					c0.183-1.571-0.943-2.993-2.514-3.176C608.395,373.144,606.973,374.269,606.79,375.841z"/>
			</g>
		</g>
		<g>
			<path style="fill:#5DCBC2;" d="M562.526,291.31l52.639,6.126c2.685,0.313,4.609,2.743,4.297,5.428l-3.27,28.092
				c-0.313,2.685-2.743,4.609-5.428,4.296l-1.88-0.219l-2.63,9.909l-5.653-10.873l-42.476-4.944
				c-2.685-0.313-4.609-2.743-4.297-5.428l3.27-28.092C557.41,292.921,559.84,290.997,562.526,291.31z"/>
			<g>
				<path style="fill:#FFFFFF;" d="M596.047,314.376c-0.172,1.475,0.885,2.811,2.361,2.982c1.475,0.172,2.811-0.885,2.982-2.361
					c0.172-1.475-0.885-2.811-2.361-2.982C597.554,311.843,596.219,312.9,596.047,314.376z"/>
				<path style="fill:#FFFFFF;" d="M583.973,312.97c-0.172,1.475,0.885,2.811,2.36,2.982c1.475,0.172,2.811-0.885,2.982-2.361
					c0.172-1.475-0.885-2.811-2.36-2.982C585.48,310.438,584.145,311.495,583.973,312.97z"/>
				<path style="fill:#FFFFFF;" d="M571.899,311.565c-0.172,1.475,0.885,2.811,2.36,2.982c1.475,0.172,2.811-0.885,2.982-2.36
					c0.172-1.475-0.885-2.811-2.361-2.982C573.406,309.033,572.071,310.09,571.899,311.565z"/>
			</g>
		</g>
		<g>
			<path style="fill:#5DCBC2;" d="M641.73,313.387l49.757,5.791c2.538,0.295,4.357,2.593,4.061,5.131l-3.091,26.555
				c-0.296,2.538-2.593,4.357-5.131,4.061l-1.777-0.207l-2.486,9.366l-5.343-10.278l-40.151-4.673
				c-2.538-0.295-4.357-2.593-4.061-5.131l3.091-26.555C636.894,314.91,639.192,313.091,641.73,313.387z"/>
			<g>
				<path style="fill:#FFFFFF;" d="M673.416,335.19c-0.162,1.395,0.837,2.657,2.231,2.819c1.395,0.162,2.657-0.837,2.819-2.231
					c0.162-1.395-0.837-2.657-2.231-2.819C674.841,332.797,673.579,333.796,673.416,335.19z"/>
				<path style="fill:#FFFFFF;" d="M662.003,333.862c-0.162,1.395,0.837,2.657,2.231,2.819c1.395,0.162,2.657-0.837,2.819-2.231
					c0.162-1.395-0.837-2.657-2.231-2.819C663.428,331.468,662.166,332.467,662.003,333.862z"/>
				<path style="fill:#FFFFFF;" d="M650.59,332.534c-0.162,1.395,0.837,2.657,2.231,2.819s2.657-0.837,2.819-2.231
					c0.162-1.395-0.837-2.657-2.231-2.819C652.015,330.14,650.753,331.139,650.59,332.534z"/>
			</g>
		</g>
	</g>
	<g>
		<path style="fill:#5DCBC2;" d="M165.691,131.131l10.647,35.228c1.274,4.216-1.1,8.648-5.317,9.923l-72.473,21.904
			c-4.216,1.274-8.648-1.1-9.923-5.317l-10.647-35.228c-0.106-0.351-0.182-0.712-0.235-1.068c-0.199-0.477-0.285-1.086-0.26-1.839
			c0.425-11.063,24.897-50.265,32.488-53.097c7.021-2.615,41.798,14.681,52.618,25.249c0.374,0.259,0.724,0.548,1.051,0.866
			C164.57,128.654,165.29,129.805,165.691,131.131z"/>
		<path style="fill:#479C95;" d="M163.931,127.663c-2.609,2.388-5.525,5.066-8.562,7.814c-12.006,10.882-25.78,23.021-28.623,24.089
			c-3.484,1.305-24.061-1.307-37.526-3.23c-5.7-0.808-10.124-1.487-11.435-1.693c0.126-3.391,2.526-9.441,6.004-16.277
			c2.712-5.345,6.102-11.168,9.572-16.578c6.566-10.213,13.458-18.946,16.902-20.239c3.507-1.301,13.912,2.347,24.801,7.635
			c5.047,2.452,10.19,5.258,14.804,8.092c5.407,3.318,10.087,6.658,13.012,9.521C163.255,127.057,163.615,127.343,163.931,127.663z"
			/>
		<g>
			<path style="fill:#FFFFFF;" d="M146.388,105.761l8.982,29.716c-12.006,10.882-25.78,23.021-28.623,24.089
				c-3.484,1.305-24.061-1.307-37.526-3.23l-9.221-30.509L146.388,105.761z"/>
			<g>
				<path style="fill:#6A80AF;" d="M142.534,118.032l-52.531,15.877c-0.416,0.126-0.855-0.109-0.98-0.525l-0.022-0.073
					c-0.126-0.416,0.109-0.855,0.525-0.98l52.531-15.877c0.416-0.126,0.855,0.109,0.98,0.525l0.022,0.073
					C143.185,117.467,142.95,117.906,142.534,118.032z"/>
				<path style="fill:#6A80AF;" d="M144.23,123.643L91.699,139.52c-0.416,0.126-0.855-0.109-0.98-0.525l-0.022-0.073
					c-0.126-0.416,0.109-0.855,0.525-0.98l52.531-15.877c0.416-0.126,0.855,0.109,0.98,0.525l0.022,0.073
					C144.881,123.079,144.646,123.518,144.23,123.643z"/>
				<path style="fill:#6A80AF;" d="M145.926,129.255l-52.531,15.877c-0.416,0.126-0.855-0.109-0.98-0.525l-0.022-0.074
					c-0.126-0.416,0.11-0.855,0.525-0.98l52.531-15.877c0.416-0.126,0.855,0.109,0.98,0.525l0.022,0.074
					C146.577,128.69,146.342,129.129,145.926,129.255z"/>
				<path style="fill:#6A80AF;" d="M147.622,134.866l-52.531,15.877c-0.416,0.126-0.855-0.109-0.98-0.525l-0.022-0.073
					c-0.126-0.416,0.11-0.855,0.525-0.98l52.531-15.877c0.416-0.126,0.855,0.109,0.98,0.525l0.022,0.073
					C148.273,134.302,148.038,134.741,147.622,134.866z"/>
			</g>
		</g>
	</g>
	<g>
		<g>
			<g>
				<path style="fill:#63A4E8;" d="M535.54,340.03c-9.55-16.38-28.53-31.42-41.34-43.59c-18.64-17.71-40.44-15.57-40.44-15.57
					l-23.01-2.13c0,0-10.18-0.01-42.05-2.34c-27.58-2.02-72.56-29.83-84.17-37.28c-1.72-1.1-3.92-1.09-5.63,0.03l-12.02,7.86
					c-2.23,1.46-3.01,4.38-1.78,6.73c8.35,15.93,24.21,28.37,41.75,37.89c11.82,6.41,24.4,11.5,35.96,15.43v0.01
					c23.53,8.01,42.82,11.27,42.82,11.27c-8.91,64.31-5.03,105.13-5.03,105.13h93.13l-1.9-13.79c0,0,31.25-14.5,44.14-33.66
					c2.78-4.13,4.71-8.48,5.29-12.94C542.28,355.21,539.89,347.48,535.54,340.03z M512.14,357.02
					c-1.749,14.428-24.05,25.63-24.05,25.63v-51.76C488.09,330.89,513.889,342.592,512.14,357.02z"/>
				<g>
					<g>
						<path style="fill:#FFFFFF;stroke:#C5D5E8;stroke-miterlimit:10;" d="M365.274,227.996h-127.96c-2.839,0-5.14-2.301-5.14-5.14
							V121.519c0-2.839,2.301-5.14,5.14-5.14h127.96c2.839,0,5.14,2.301,5.14,5.14v101.338
							C370.413,225.695,368.112,227.996,365.274,227.996z"/>
						<path style="fill:#FFFFFF;stroke:#C5D5E8;stroke-miterlimit:10;" d="M355.861,223.028h-127.96c-2.839,0-5.14-2.301-5.14-5.14
							V116.551c0-2.839,2.301-5.14,5.14-5.14h127.96c2.839,0,5.14,2.301,5.14,5.14v101.338
							C361,220.727,358.699,223.028,355.861,223.028z"/>
						<g>
							<g>
								<circle style="fill:#D1E7FF;" cx="249.37" cy="136.289" r="9.413"/>
								<rect x="237.583" y="153.922" style="fill:#D1E7FF;" width="23.574" height="48.681"/>
							</g>
							<g>
								<circle style="fill:#5DCBC2;" cx="291.881" cy="136.289" r="9.413"/>
								<rect x="280.094" y="153.922" style="fill:#5DCBC2;" width="23.574" height="48.681"/>
							</g>
							<g>
								<circle style="fill:#D1E7FF;" cx="334.391" cy="136.289" r="9.413"/>
								<rect x="322.604" y="153.922" style="fill:#D1E7FF;" width="23.574" height="48.681"/>
							</g>
						</g>
						<g>
							<polygon style="fill:#5DCBC2;" points="230.98,174.202 227.036,178.147 231.213,182.324 							"/>
							<polygon style="fill:#5DCBC2;" points="352.032,174.202 355.977,178.147 351.8,182.324 							"/>
						</g>
					</g>
					<path style="fill:#FFACB6;" d="M300.536,240.751c0,0-9.204-31.902-13.398-31.155c-4.194,0.747,0,14.041,0,14.041l-19.97-0.09
						c0,0,15.054,21.824,21.112,25.668L300.536,240.751z"/>
				</g>
				<polygon style="opacity:0.7;fill:#43274D;" points="464.325,380.705 493.73,423.47 459.533,422.183 				"/>
				<polygon style="opacity:0.7;fill:#43274D;" points="335.072,256.932 354.98,304.268 338.417,297.403 				"/>
				<g>
					<g>
						<g>
							<g>
								<path style="fill:#FFFFFF;" d="M459.533,422.183h-20.053c-2.647,0-4.793-2.146-4.793-4.793v-36.685h29.639v36.685
									C464.325,420.037,462.18,422.183,459.533,422.183z"/>
							</g>
						</g>
						<g>
							<path style="opacity:0.3;fill:#FFFFFF;" d="M441.323,379.738c-0.769-0.888-1.121-1.993-1.27-3.11
								c-0.08-0.561-0.063-1.126-0.028-1.691c0.059-0.576,0.178-1.129,0.314-1.667c0.299-1.068,0.719-2.049,1.109-3
								c0.395-0.95,0.772-1.866,0.875-2.851l0.002-0.015c0.015-0.147,0.146-0.253,0.293-0.238c0.113,0.012,0.203,0.094,0.23,0.197
								c0.295,1.12,0.069,2.27-0.162,3.305c-0.257,1.042-0.568,2.029-0.784,2.994c-0.233,0.957-0.292,1.892-0.316,2.874
								c-0.017,0.969,0.044,1.96,0.166,2.973l0.004,0.037c0.016,0.136-0.08,0.259-0.216,0.275
								C441.455,379.832,441.375,379.797,441.323,379.738z"/>
							<path style="opacity:0.3;fill:#FFFFFF;" d="M456.716,379.51c0.037-0.832,0.058-1.624,0.029-2.393
								c-0.037-0.783-0.077-1.518-0.259-2.281c-0.167-0.771-0.409-1.571-0.604-2.423c-0.171-0.847-0.339-1.799-0.063-2.719
								c0.043-0.142,0.192-0.222,0.334-0.18c0.102,0.031,0.172,0.117,0.188,0.216l0.003,0.019c0.121,0.785,0.441,1.504,0.776,2.265
								c0.328,0.761,0.679,1.555,0.929,2.429c0.113,0.441,0.212,0.896,0.262,1.373c0.026,0.465,0.041,0.93-0.033,1.392
								c-0.136,0.919-0.449,1.824-1.133,2.531c-0.096,0.099-0.255,0.102-0.354,0.006c-0.053-0.052-0.079-0.121-0.076-0.19
								L456.716,379.51z"/>
							<path style="opacity:0.3;fill:#FFFFFF;" d="M448.89,379.51c0.271-1.331,0.401-2.673,0.406-3.99
								c-0.004-1.332-0.096-2.621-0.417-3.917c-0.302-1.305-0.736-2.621-1.101-3.996c-0.337-1.368-0.65-2.864-0.335-4.335
								c0.031-0.143,0.172-0.234,0.315-0.204c0.121,0.026,0.204,0.13,0.21,0.247l0,0.012c0.058,1.339,0.551,2.599,1.048,3.881
								c0.498,1.284,1.04,2.594,1.426,4.003c0.178,0.708,0.332,1.433,0.406,2.184c0.049,0.739,0.07,1.48-0.02,2.216
								c-0.171,1.466-0.592,2.922-1.51,4.128c-0.082,0.107-0.235,0.128-0.343,0.046c-0.077-0.059-0.11-0.154-0.092-0.243
								L448.89,379.51z"/>
						</g>
					</g>
					<path style="fill:#FFACB6;" d="M466.236,398.265c0,0-11.748-1.165-15.981,0.921c-4.272,2.105-8.665,7.838-7.439,9.2
						c1.225,1.362,5.764-2.27,5.764-2.27s-5.254,5.674-5.01,7.943c0.244,2.27,7.762-2.724,7.762-2.724s-4.795,4.766-4.341,7.036
						c0.454,2.27,6.611-3.627,6.611-3.627s-2.307,4.398-1.336,6.245c1.336,2.54,8.524-5.795,9.795-5.795
						c1.271,0,10.84,1.576,10.84,1.576L466.236,398.265z"/>
				</g>
				<g>
					<path style="fill:#99CBFF;" d="M362.81,307.06c-11.56-3.93-24.14-9.02-35.96-15.43C326.85,291.63,350.96,285.07,362.81,307.06z
						"/>
					<path style="fill:none;stroke:#99CBFF;stroke-width:0.5;stroke-linecap:round;stroke-miterlimit:10;" d="M306.836,240.59
						c0,0-10.93,13.018-19.377,17.25"/>
					<path style="fill:#63A4E8;stroke:#99CBFF;stroke-width:0.5;stroke-linecap:round;stroke-miterlimit:10;" d="M488.09,382.65
						c-1.582,0.469-22.553,12.586-21.854,15.615c0.699,3.029,5.592,20.738,8.854,20.272c3.262-0.466,16.74-8.857,16.74-8.857"/>
					<path style="fill:none;stroke:#99CBFF;stroke-linecap:round;stroke-miterlimit:10;" d="M424.527,278.951
						c0,0,1.631,11.78,16.311,11.896c14.68,0.116,18.426-9.941,18.426-9.941"/>
					<path style="fill:none;stroke:#99CBFF;stroke-width:0.5;stroke-linecap:round;stroke-miterlimit:10;" d="M471.517,392.771
						c0,0,4.986,17.727,9.972,22.937"/>
					<path style="fill:#99CBFF;" d="M403.449,335.78c0,0,44.227,5.275,84.641,3.999v14.913c0,0-64.257,2.871-85.988-5.555
						L403.449,335.78z"/>
					<path style="fill:#99CBFF;" d="M541.26,363.08c-0.58,4.46-2.51,8.81-5.29,12.94c-6.68-12.56-2.58-29.22-0.43-35.99
						C539.89,347.48,542.28,355.21,541.26,363.08z"/>
				</g>
			</g>
			<g>
				<g>
					<path style="fill:#FFACB6;" d="M430.742,278.738c-0.53,1-1.05,1.86-1.35,2.24c0,0,0.08,0.05,0.24,0.16
						c2.4,1.67,4,2.79,6.05,3.49c1.28,0.44,2.73,0.73,4.66,0.87c5.13,0.37,9.94-0.48,13.42-4.63c-4.9-5-4.31-10.64-3.25-17.1
						c0.04-0.26,0.08-0.47,0.1-0.59c0-0.01,0-0.01,0-0.01v-0.01c0.21-1.3,0.44-2.45,0.54-3.7c-4.37,0.07-11.55,0.37-15.24,0.61
						c-2.54,0.15-3.44,0.21-4.74,0.29c-0.05,0-0.1,0.01-0.14,0.01c-0.19,0.01-0.39,0.03-0.61,0.04c-0.4,0.03-0.84,0.06-1.38,0.1
						h-0.07c0.36,0.54,0.72,1.1,1.06,1.66c2.49,4.11,4.03,8.67,2.3,13.22C432.012,276.258,431.362,277.568,430.742,278.738z"/>
					<path style="fill:#FF96A3;" d="M429.03,260.485c0,0.01,0.01,0.01,0.01,0.021c0.347,0.557,0.684,1.105,0.989,1.662
						c2.493,4.114,4.03,8.669,2.304,13.225c-0.326,0.863-0.968,2.178-1.589,3.346c10.1,1.757,14.929-7.733,19.853-15.55l0.011-0.01
						c0-0.011,0-0.011,0-0.011c0.01-0.01,0.021-0.021,0.021-0.021c0-0.01-0.01-0.01-0.01,0c0.863-1.178,1.157-2.315,0.589-3.693
						h-0.053c-6.67,0.158-13.32,0.516-19.979,0.905c-0.053,0-0.105,0.011-0.147,0.011c-0.21,0.01-0.41,0.021-0.61,0.042
						C429.956,260.432,429.493,260.453,429.03,260.485z"/>
				</g>
				<g>
					<g>
						<path style="fill:#FFACB6;" d="M388.7,219.742c-0.017,0.488,0.032,0.951,0.102,1.414c0.541,4.031,3.784,7.196,7.708,7.269
							c4.402,0.091,8.026-3.638,8.128-8.349c0.08-4.71-3.408-8.593-7.81-8.683l-0.022,0
							C392.404,211.326,388.801,215.032,388.7,219.742z"/>
						<path style="fill:#FF96A3;" d="M392.74,219.821c-0.042,2.322,1.683,4.244,3.854,4.291c2.17,0.048,3.964-1.796,4.006-4.119
							c0.042-2.322-1.683-4.244-3.854-4.292C394.576,215.654,392.782,217.499,392.74,219.821z"/>
						<path style="opacity:0.7;fill:#43274D;" d="M388.801,221.156c0.541,4.031,3.784,7.196,7.708,7.269
							c4.402,0.091,8.026-3.638,8.128-8.349c0.08-4.71-3.408-8.593-7.81-8.683l-0.022,0l0.312,2.804
							C397.117,214.197,394.695,220.836,388.801,221.156z"/>
					</g>
					<g>
						<path style="fill:#FFACB6;" d="M477.828,212.723c-2.783,3.617-2.303,8.956,1.064,11.924c3.366,2.968,8.355,2.459,11.125-1.14
							c2.787-3.585,2.306-8.923-1.06-11.892l-0.255-0.211c-2.796-2.292-6.575-2.29-9.327-0.216
							C478.814,211.624,478.292,212.12,477.828,212.723z"/>
						<path style="fill:#FF96A3;" d="M480.705,215.279c-1.466,1.9-1.214,4.714,0.563,6.285c1.777,1.571,4.407,1.304,5.873-0.596
							c1.466-1.9,1.214-4.714-0.563-6.285C484.8,213.112,482.171,213.379,480.705,215.279z"/>
						<path style="opacity:0.7;fill:#43274D;" d="M477.828,212.723c-2.783,3.617-2.303,8.956,1.064,11.924
							c3.366,2.968,8.355,2.459,11.125-1.14c2.787-3.585,2.306-8.923-1.06-11.892l-0.255-0.211c-1.39,1.432-4.604,3.617-9.327-0.216
							C478.814,211.624,478.292,212.12,477.828,212.723z"/>
					</g>
					<path style="fill:#FFFFFF;" d="M398.65,224.651c0.518-0.901,0.688-2,0.376-3.076c-0.61-2.102-2.808-3.312-4.911-2.702
						c-2.102,0.61-3.312,2.808-2.702,4.91c0.597,2.057,2.715,3.248,4.775,2.727l4.288,7.249c0,0,2.65-0.616,2.618-1.761
						L398.65,224.651z"/>
					<path style="fill:#FFFFFF;" d="M481.719,222.528c-0.518-0.901-0.688-1.999-0.376-3.076c0.61-2.102,2.808-3.312,4.91-2.702
						c2.102,0.61,3.312,2.808,2.703,4.911c-0.597,2.057-2.715,3.248-4.775,2.727l-4.288,7.249c0,0-2.65-0.616-2.618-1.762
						L481.719,222.528z"/>
					<path style="fill:#FFACB6;" d="M483.19,208.05c0.02,1.36-0.02,2.71-0.08,4.03c-0.01,0.46-0.04,0.91-0.06,1.36
						c-0.37,5.92-1.43,11.59-3.09,16.86c-4.26,13.59-12.48,24.51-22.82,30.35c-5.18,2.93-10.88,4.58-16.88,4.64
						c-3.2,0.04-6.32-0.39-9.32-1.19c-6.84-1.87-13.12-5.84-18.4-11.37c-6.48-6.78-11.46-15.9-14.15-26.38
						c-0.95-3.64-1.61-7.45-1.97-11.38c-0.17-1.95-0.27-3.95-0.3-5.96c-0.01-0.5,0-0.99,0-1.51c0.02-0.31,0.01-0.6,0.03-0.9
						c0-0.3,0.01-0.63,0.02-0.94c0.04-1.44,0.12-2.86,0.26-4.27c0.69-7.47,2.49-14.5,5.22-20.8c4.01-9.37,10.06-17.07,17.35-22.16
						c5.97-4.19,12.78-6.55,20.06-6.63c3.36-0.04,6.63,0.42,9.78,1.33c15.35,4.4,27.73,19.33,32.36,38.71
						C482.45,196.97,483.13,202.41,483.19,208.05z"/>
					<path style="fill:#01004C;" d="M466.272,186.721c0,0,3.459,9.815,7.42,17.359c3.961,7.544,2.33,19.511,0,22.498
						c0,0,12.674-11.808,12.35-19.614c-0.324-7.806,0.71-22.677-8.499-26.134C468.333,177.372,466.272,186.721,466.272,186.721z"/>
					<g>
						<path style="fill:#FF96A3;" d="M457.136,260.65c10.34-5.838,18.561-16.763,22.823-30.349
							c-4.067-4.866-10.897-9.382-16.662-9.316c-10.544,0.118-18.986,9.353-18.87,20.643
							C444.512,250.436,449.811,257.88,457.136,260.65z"/>
						<path style="fill:#FF96A3;" d="M398.388,226.348c2.697,10.483,7.674,19.605,14.15,26.378c1.732-2.743,2.717-6.051,2.677-9.611
							c-0.099-9.381-7.283-16.906-16.05-16.806C398.901,226.314,398.649,226.318,398.388,226.348z"/>
					</g>
					<path style="opacity:0.4;fill:#43274D;" d="M457.14,260.65c-5.18,2.93-10.88,4.58-16.88,4.64c-3.2,0.04-6.32-0.39-9.32-1.19
						c-6.84-1.87-13.12-5.84-18.4-11.37c-6.48-6.78-11.46-15.9-14.15-26.38c-0.95-3.64-1.61-7.45-1.97-11.38
						c-0.17-1.95-0.27-3.95-0.3-5.96c-0.01-0.5,0-0.99,0-1.51c0.02-0.31,0.01-0.6,0.03-0.9c0-0.3,0.01-0.63,0.02-0.94
						c0.04-1.44,0.12-2.86,0.26-4.27c0.69-7.47,2.49-14.5,5.22-20.8c4.01-9.37,10.06-17.07,17.35-22.16
						c5.97-4.19,12.78-6.55,20.06-6.63c3.36-0.04,6.63,0.42,9.78,1.33l-3.55,22.84c0,0-31.166,16.697-30.656,29.577
						C415.216,220.232,416.1,257.5,457.14,260.65z"/>
					<g>
						<g>
							<g>
								<path style="fill:#874048;" d="M415.451,211.701c3.668,0.043,6.616,3.238,6.572,7.122c-0.008,0.745-0.587,1.344-1.291,1.336
									c-0.703-0.008-1.269-0.621-1.26-1.366c0.027-2.396-1.79-4.366-4.051-4.393c-2.262-0.027-4.123,1.9-4.15,4.296
									c-0.009,0.745-0.587,1.344-1.291,1.336c-0.703-0.008-1.268-0.621-1.259-1.366
									C408.765,214.782,411.784,211.658,415.451,211.701z"/>
							</g>
							<g>
								<path style="fill:#874048;" d="M445.37,212.051c-3.853-0.045-7.022,3.078-7.066,6.962c-0.008,0.745,0.586,1.358,1.324,1.366
									c0.738,0.009,1.347-0.59,1.355-1.335c0.027-2.396,1.981-4.321,4.356-4.294c2.376,0.028,4.285,1.999,4.258,4.395
									c-0.008,0.745,0.586,1.358,1.324,1.367c0.738,0.009,1.345-0.59,1.354-1.335C452.32,215.293,449.222,212.096,445.37,212.051z
									"/>
							</g>
						</g>
						<g>
							<g>
								<g>
									<path style="fill:#01004C;" d="M437.171,202.987c0,0,15.529,7.345,16.652,6.119c1.124-1.228,2.215-2.721,0.831-3.618
										c-1.384-0.897-14.865-6.949-15.836-6.552C437.848,199.333,437.129,200.564,437.171,202.987z"/>
								</g>
							</g>
							<g>
								<g>
									<path style="fill:#01004C;" d="M422.331,203.22c0,0-14.507,7.389-15.472,6.169c-0.965-1.221-1.889-2.697-0.588-3.515
										c1.301-0.818,13.844-6.195,14.709-5.78C421.844,200.511,422.481,200.886,422.331,203.22z"/>
								</g>
							</g>
						</g>
						<g>
							<path style="fill:#FF96A3;" d="M432.489,227.347c-1.065,1.067-5.67,1.085-6.895,0.002c-0.295-0.264-0.369-1.214-0.307-2.556
								c0.248-4.347,2.19-12.645,4.008-12.628c0.141,0.007,0.258,0.038,0.395,0.145
								C431.843,213.738,433.503,226.352,432.489,227.347z"/>
							<path style="opacity:0.5;fill:#43274D;" d="M432.489,227.347c-1.065,1.067-5.67,1.085-6.895,0.002
								c-0.295-0.264-0.369-1.214-0.307-2.556c4.931-1.446,4.854-8.451,4.402-12.484
								C431.843,213.738,433.503,226.352,432.489,227.347z"/>
						</g>
						<path style="fill:#FFFFFF;" d="M420.778,234.255c0,0,4.759,1.001,8.794,0.954c4.035-0.048,8.77-1.161,8.77-1.161
							s-2.242,6.433-8.71,6.51C423.164,240.633,420.778,234.255,420.778,234.255z"/>
					</g>
					<g>
						<path style="fill:#0C0A5D;" d="M467.925,149.702c-18.699-10.66-18.515-4.893-26.559-4.718
							c-8.043,0.175-11.014-5.698-18.004-1.713c-6.99,3.985-6.815,9.402-13.456,10.102c-6.641,0.699-13.981-0.699-14.505,6.116
							c-0.524,6.816-10.403,10.107-13.281,19.223c-2.879,9.116,1.048,13.71,0.699,21.36c-0.35,7.65,4.019,15.443-2.097,24.042
							c0,0,5.931-4.335,7.975-8.412c2.044-4.077,0.369-5.571,3.304-7.154c0.576-0.311,1.175-0.53,1.788-0.712
							c1.487,8.494,7.904,16.278,7.904,16.278c-3.305-6.171-1.092-18.98-1.092-18.98h-0.005c0.368-0.306,0.734-0.649,1.097-1.054
							c3.262-3.64,2.097-9.931,8.388-12.96c6.291-3.029,10.952-2.097,16.194-6.058c5.242-3.961,19.016-9.087,19.016-9.087
							s-2.453,7.223-6.948,10.718c-4.495,3.495-6.557,3.262-9.371,7.223c-2.813,3.961-2.697,9.087-2.697,9.087
							s6.993-8.388,10.895-9.553s7.862-0.699,10.426-3.029c2.563-2.33,6.167-12.932,12.641-14.447c0,0-2.097,2.738-2.272,6.932
							c-0.175,4.194-1.065,7.165-4.202,7.689c0,0,3.154,2.796,7.348,1.398c4.194-1.398,7.176-12.715,16.433-11.164
							C477.542,180.83,486.624,160.362,467.925,149.702z"/>
						<path style="fill:none;stroke:#100D7D;stroke-linecap:round;stroke-miterlimit:10;" d="M403.615,187.45
							c0,0,2.228-8.388,10.376-9.087c8.148-0.699,15.192-2.155,16.944-6.35c1.752-4.194,7.474-6.408,10.96-7.456"/>
						<path style="fill:none;stroke:#100D7D;stroke-linecap:round;stroke-miterlimit:10;" d="M390.857,181.566
							c0,0-2.064-7.806,5.259-10.252c7.323-2.447,15.479-5.126,15.362-8.505"/>
					</g>
				</g>
			</g>
		</g>
		<g>
			<g>
				<g>
					<path style="fill:#C5D5E8;" d="M338.105,379.158H158.86c-3.201,0-5.862-2.464-6.108-5.655l-9.055-117.417
						c-0.274-3.558,2.539-6.597,6.108-6.597h179.245c3.201,0,5.862,2.464,6.108,5.655l9.055,117.417
						C344.487,376.119,341.674,379.158,338.105,379.158z"/>
					<path style="opacity:0.4;fill:#9BAABD;" d="M200.169,285.576c-2.14,1.495-52.541,21.484-52.541,21.484l-1.481-19.209
						L200.169,285.576z"/>
					<polygon style="opacity:0.2;fill:#9BAABD;" points="225.188,356.77 216.799,379.158 225.188,379.158 					"/>
					<polygon style="opacity:0.2;fill:#9BAABD;" points="262.722,356.77 275.168,379.158 264.176,379.158 					"/>
					<circle style="fill:#FFFFFF;" cx="243.955" cy="314.323" r="7.509"/>
				</g>
				<g>
					<polygon style="fill:#91B8E3;" points="266.207,410.44 221.702,410.44 225.188,356.77 262.722,356.77 					"/>
					<path style="fill:#C5D5E8;" d="M285.372,420.813h-82.835l0,0c0-6.637,5.38-12.017,12.017-12.017h58.801
						C279.992,408.796,285.372,414.176,285.372,420.813L285.372,420.813z"/>
				</g>
			</g>
			<g>
				<rect x="301.032" y="414.199" style="fill:#C5D5E8;" width="83.459" height="7.272"/>
				<g>
					<rect x="303.733" y="412.187" style="fill:#C5D5E8;" width="14.811" height="3.32"/>
					<rect x="319.545" y="412.187" style="fill:#C5D5E8;" width="14.811" height="3.32"/>
					<rect x="335.356" y="412.187" style="fill:#C5D5E8;" width="14.811" height="3.32"/>
					<rect x="351.168" y="412.187" style="fill:#C5D5E8;" width="14.811" height="3.32"/>
					<rect x="366.98" y="412.187" style="fill:#C5D5E8;" width="14.811" height="3.32"/>
				</g>
			</g>
			<g>
				<path style="fill:#A5D1FE;" d="M194.617,226.253h-95.74c-4.374,0-7.92,3.546-7.92,7.92v45.758c0,4.374,3.546,7.92,7.92,7.92
					h3.062l2.373,16.416l11.118-16.416h79.187c4.374,0,7.92-3.546,7.92-7.92v-45.758
					C202.537,229.799,198.991,226.253,194.617,226.253z"/>
				<g>
					<circle style="fill:#FFFFFF;" cx="127.081" cy="257.052" r="4.351"/>
					<circle style="fill:#FFFFFF;" cx="146.747" cy="257.052" r="4.351"/>
					<circle style="fill:#FFFFFF;" cx="166.414" cy="257.052" r="4.351"/>
				</g>
			</g>
		</g>
		
			<line style="fill:none;stroke:#0C0A5D;stroke-width:3;stroke-linecap:round;stroke-miterlimit:10;" x1="110.747" y1="422.467" x2="658.235" y2="422.467"/>
	</g>
</g>
</svg>
